<?xml version="1.0" encoding="utf-8" standalone="no"?>
<!DOCTYPE svg PUBLIC "-//W3C//DTD SVG 1.1//EN"
  "http://www.w3.org/Graphics/SVG/1.1/DTD/svg11.dtd">
<svg height="432pt" version="1.1" viewBox="0 0 720 432" width="720pt" xmlns="http://www.w3.org/2000/svg" xmlns:xlink="http://www.w3.org/1999/xlink">
 <metadata>
  <rdf:RDF xmlns:cc="http://creativecommons.org/ns#" xmlns:dc="http://purl.org/dc/elements/1.1/" xmlns:rdf="http://www.w3.org/1999/02/22-rdf-syntax-ns#">
   <cc:Work>
    <dc:type rdf:resource="http://purl.org/dc/dcmitype/StillImage"/>
    <dc:date>2024-01-18T17:47:32.568676</dc:date>
    <dc:format>image/svg+xml</dc:format>
    <dc:creator>
     <cc:Agent>
      <dc:title>Matplotlib v3.4.3, https://matplotlib.org/</dc:title>
     </cc:Agent>
    </dc:creator>
   </cc:Work>
  </rdf:RDF>
 </metadata>
 <defs>
  <style type="text/css">*{stroke-linecap:butt;stroke-linejoin:round;}</style>
 </defs>
 <g id="figure_1">
  <g id="patch_1">
   <path d="M 0 432 
L 720 432 
L 720 0 
L 0 0 
z
" style="fill:#ffffff;"/>
  </g>
  <g id="axes_1">
   <g id="patch_2">
    <path d="M 74.99 375.28 
L 703.8 375.28 
L 703.8 16.2 
L 74.99 16.2 
z
" style="fill:#ffffff;"/>
   </g>
   <g id="matplotlib.axis_1">
    <g id="xtick_1">
     <g id="line2d_1">
      <path clip-path="url(#pee9f844949)" d="M 103.000055 375.28 
L 103.000055 16.2 
" style="fill:none;stroke:#b0b0b0;stroke-linecap:square;stroke-opacity:0.3;stroke-width:0.8;"/>
     </g>
     <g id="line2d_2">
      <defs>
       <path d="M 0 0 
L 0 3.5 
" id="me4795ef87f" style="stroke:#000000;stroke-width:0.8;"/>
      </defs>
      <g>
       <use style="stroke:#000000;stroke-width:0.8;" x="103.000055" xlink:href="#me4795ef87f" y="375.28"/>
      </g>
     </g>
     <g id="text_1">
      <!-- 0 -->
      <g transform="translate(98.546305 392.917812)scale(0.14 -0.14)">
       <defs>
        <path d="M 2034 219 
Q 2513 219 2750 744 
Q 2988 1269 2988 2328 
Q 2988 3391 2750 3916 
Q 2513 4441 2034 4441 
Q 1556 4441 1318 3916 
Q 1081 3391 1081 2328 
Q 1081 1269 1318 744 
Q 1556 219 2034 219 
z
M 2034 -91 
Q 1275 -91 848 546 
Q 422 1184 422 2328 
Q 422 3475 848 4112 
Q 1275 4750 2034 4750 
Q 2797 4750 3222 4112 
Q 3647 3475 3647 2328 
Q 3647 1184 3222 546 
Q 2797 -91 2034 -91 
z
" id="DejaVuSerif-30" transform="scale(0.015625)"/>
       </defs>
       <use xlink:href="#DejaVuSerif-30"/>
      </g>
     </g>
    </g>
    <g id="xtick_2">
     <g id="line2d_3">
      <path clip-path="url(#pee9f844949)" d="M 217.443589 375.28 
L 217.443589 16.2 
" style="fill:none;stroke:#b0b0b0;stroke-linecap:square;stroke-opacity:0.3;stroke-width:0.8;"/>
     </g>
     <g id="line2d_4">
      <g>
       <use style="stroke:#000000;stroke-width:0.8;" x="217.443589" xlink:href="#me4795ef87f" y="375.28"/>
      </g>
     </g>
     <g id="text_2">
      <!-- 2 -->
      <g transform="translate(212.989839 392.917812)scale(0.14 -0.14)">
       <defs>
        <path d="M 819 3553 
L 469 3553 
L 469 4384 
Q 803 4563 1142 4656 
Q 1481 4750 1806 4750 
Q 2534 4750 2956 4397 
Q 3378 4044 3378 3438 
Q 3378 2753 2422 1800 
Q 2347 1728 2309 1691 
L 1131 513 
L 3078 513 
L 3078 1088 
L 3444 1088 
L 3444 0 
L 434 0 
L 434 341 
L 1850 1753 
Q 2319 2222 2519 2614 
Q 2719 3006 2719 3438 
Q 2719 3909 2473 4175 
Q 2228 4441 1797 4441 
Q 1350 4441 1106 4219 
Q 863 3997 819 3553 
z
" id="DejaVuSerif-32" transform="scale(0.015625)"/>
       </defs>
       <use xlink:href="#DejaVuSerif-32"/>
      </g>
     </g>
    </g>
    <g id="xtick_3">
     <g id="line2d_5">
      <path clip-path="url(#pee9f844949)" d="M 331.887124 375.28 
L 331.887124 16.2 
" style="fill:none;stroke:#b0b0b0;stroke-linecap:square;stroke-opacity:0.3;stroke-width:0.8;"/>
     </g>
     <g id="line2d_6">
      <g>
       <use style="stroke:#000000;stroke-width:0.8;" x="331.887124" xlink:href="#me4795ef87f" y="375.28"/>
      </g>
     </g>
     <g id="text_3">
      <!-- 4 -->
      <g transform="translate(327.433374 392.917812)scale(0.14 -0.14)">
       <defs>
        <path d="M 2234 1581 
L 2234 4063 
L 641 1581 
L 2234 1581 
z
M 3609 0 
L 1484 0 
L 1484 331 
L 2234 331 
L 2234 1247 
L 197 1247 
L 197 1588 
L 2241 4750 
L 2859 4750 
L 2859 1581 
L 3750 1581 
L 3750 1247 
L 2859 1247 
L 2859 331 
L 3609 331 
L 3609 0 
z
" id="DejaVuSerif-34" transform="scale(0.015625)"/>
       </defs>
       <use xlink:href="#DejaVuSerif-34"/>
      </g>
     </g>
    </g>
    <g id="xtick_4">
     <g id="line2d_7">
      <path clip-path="url(#pee9f844949)" d="M 446.330658 375.28 
L 446.330658 16.2 
" style="fill:none;stroke:#b0b0b0;stroke-linecap:square;stroke-opacity:0.3;stroke-width:0.8;"/>
     </g>
     <g id="line2d_8">
      <g>
       <use style="stroke:#000000;stroke-width:0.8;" x="446.330658" xlink:href="#me4795ef87f" y="375.28"/>
      </g>
     </g>
     <g id="text_4">
      <!-- 6 -->
      <g transform="translate(441.876908 392.917812)scale(0.14 -0.14)">
       <defs>
        <path d="M 2094 219 
Q 2534 219 2771 542 
Q 3009 866 3009 1472 
Q 3009 2078 2771 2401 
Q 2534 2725 2094 2725 
Q 1647 2725 1412 2412 
Q 1178 2100 1178 1509 
Q 1178 888 1415 553 
Q 1653 219 2094 219 
z
M 1075 2569 
Q 1288 2803 1556 2918 
Q 1825 3034 2163 3034 
Q 2859 3034 3264 2615 
Q 3669 2197 3669 1472 
Q 3669 763 3233 336 
Q 2797 -91 2069 -91 
Q 1278 -91 853 498 
Q 428 1088 428 2181 
Q 428 3406 931 4078 
Q 1434 4750 2350 4750 
Q 2597 4750 2869 4703 
Q 3141 4656 3425 4563 
L 3425 3794 
L 3072 3794 
Q 3034 4109 2831 4275 
Q 2628 4441 2284 4441 
Q 1678 4441 1381 3981 
Q 1084 3522 1075 2569 
z
" id="DejaVuSerif-36" transform="scale(0.015625)"/>
       </defs>
       <use xlink:href="#DejaVuSerif-36"/>
      </g>
     </g>
    </g>
    <g id="xtick_5">
     <g id="line2d_9">
      <path clip-path="url(#pee9f844949)" d="M 560.774193 375.28 
L 560.774193 16.2 
" style="fill:none;stroke:#b0b0b0;stroke-linecap:square;stroke-opacity:0.3;stroke-width:0.8;"/>
     </g>
     <g id="line2d_10">
      <g>
       <use style="stroke:#000000;stroke-width:0.8;" x="560.774193" xlink:href="#me4795ef87f" y="375.28"/>
      </g>
     </g>
     <g id="text_5">
      <!-- 8 -->
      <g transform="translate(556.320443 392.917812)scale(0.14 -0.14)">
       <defs>
        <path d="M 2981 1275 
Q 2981 1775 2732 2051 
Q 2484 2328 2034 2328 
Q 1584 2328 1336 2051 
Q 1088 1775 1088 1275 
Q 1088 772 1336 495 
Q 1584 219 2034 219 
Q 2484 219 2732 495 
Q 2981 772 2981 1275 
z
M 2853 3541 
Q 2853 3966 2637 4203 
Q 2422 4441 2034 4441 
Q 1650 4441 1433 4203 
Q 1216 3966 1216 3541 
Q 1216 3113 1433 2875 
Q 1650 2638 2034 2638 
Q 2422 2638 2637 2875 
Q 2853 3113 2853 3541 
z
M 2516 2484 
Q 3047 2413 3344 2092 
Q 3641 1772 3641 1275 
Q 3641 619 3225 264 
Q 2809 -91 2034 -91 
Q 1263 -91 845 264 
Q 428 619 428 1275 
Q 428 1772 725 2092 
Q 1022 2413 1556 2484 
Q 1084 2569 832 2842 
Q 581 3116 581 3541 
Q 581 4103 968 4426 
Q 1356 4750 2034 4750 
Q 2713 4750 3100 4426 
Q 3488 4103 3488 3541 
Q 3488 3116 3236 2842 
Q 2984 2569 2516 2484 
z
" id="DejaVuSerif-38" transform="scale(0.015625)"/>
       </defs>
       <use xlink:href="#DejaVuSerif-38"/>
      </g>
     </g>
    </g>
    <g id="xtick_6">
     <g id="line2d_11">
      <path clip-path="url(#pee9f844949)" d="M 675.217727 375.28 
L 675.217727 16.2 
" style="fill:none;stroke:#b0b0b0;stroke-linecap:square;stroke-opacity:0.3;stroke-width:0.8;"/>
     </g>
     <g id="line2d_12">
      <g>
       <use style="stroke:#000000;stroke-width:0.8;" x="675.217727" xlink:href="#me4795ef87f" y="375.28"/>
      </g>
     </g>
     <g id="text_6">
      <!-- 10 -->
      <g transform="translate(666.310227 392.917812)scale(0.14 -0.14)">
       <defs>
        <path d="M 909 0 
L 909 331 
L 1722 331 
L 1722 4213 
L 781 3603 
L 781 4013 
L 1919 4750 
L 2350 4750 
L 2350 331 
L 3163 331 
L 3163 0 
L 909 0 
z
" id="DejaVuSerif-31" transform="scale(0.015625)"/>
       </defs>
       <use xlink:href="#DejaVuSerif-31"/>
       <use x="63.623047" xlink:href="#DejaVuSerif-30"/>
      </g>
     </g>
    </g>
    <g id="text_7">
     <!-- Time -->
     <g transform="translate(366.651719 413.506562)scale(0.18 -0.18)">
      <defs>
       <path d="M 1222 0 
L 1222 331 
L 1819 331 
L 1819 4294 
L 447 4294 
L 447 3566 
L 63 3566 
L 63 4666 
L 4206 4666 
L 4206 3566 
L 3822 3566 
L 3822 4294 
L 2450 4294 
L 2450 331 
L 3047 331 
L 3047 0 
L 1222 0 
z
" id="DejaVuSerif-54" transform="scale(0.015625)"/>
       <path d="M 622 4353 
Q 622 4497 726 4603 
Q 831 4709 978 4709 
Q 1122 4709 1226 4603 
Q 1331 4497 1331 4353 
Q 1331 4206 1228 4103 
Q 1125 4000 978 4000 
Q 831 4000 726 4103 
Q 622 4206 622 4353 
z
M 1356 331 
L 1900 331 
L 1900 0 
L 231 0 
L 231 331 
L 781 331 
L 781 2988 
L 231 2988 
L 231 3322 
L 1356 3322 
L 1356 331 
z
" id="DejaVuSerif-69" transform="scale(0.015625)"/>
       <path d="M 3316 2675 
Q 3481 3041 3739 3227 
Q 3997 3413 4341 3413 
Q 4863 3413 5119 3089 
Q 5375 2766 5375 2113 
L 5375 331 
L 5894 331 
L 5894 0 
L 4300 0 
L 4300 331 
L 4800 331 
L 4800 2047 
Q 4800 2556 4650 2772 
Q 4500 2988 4153 2988 
Q 3769 2988 3567 2697 
Q 3366 2406 3366 1850 
L 3366 331 
L 3866 331 
L 3866 0 
L 2291 0 
L 2291 331 
L 2791 331 
L 2791 2069 
Q 2791 2566 2641 2777 
Q 2491 2988 2144 2988 
Q 1759 2988 1557 2697 
Q 1356 2406 1356 1850 
L 1356 331 
L 1856 331 
L 1856 0 
L 263 0 
L 263 331 
L 781 331 
L 781 2994 
L 231 2994 
L 231 3322 
L 1356 3322 
L 1356 2731 
Q 1516 3063 1762 3238 
Q 2009 3413 2322 3413 
Q 2709 3413 2968 3220 
Q 3228 3028 3316 2675 
z
" id="DejaVuSerif-6d" transform="scale(0.015625)"/>
       <path d="M 3469 1600 
L 991 1600 
L 991 1575 
Q 991 903 1244 561 
Q 1497 219 1991 219 
Q 2369 219 2611 417 
Q 2853 616 2950 1006 
L 3413 1006 
Q 3275 459 2904 184 
Q 2534 -91 1931 -91 
Q 1203 -91 761 389 
Q 319 869 319 1663 
Q 319 2450 753 2931 
Q 1188 3413 1894 3413 
Q 2647 3413 3050 2948 
Q 3453 2484 3469 1600 
z
M 2791 1931 
Q 2772 2513 2545 2808 
Q 2319 3103 1894 3103 
Q 1497 3103 1269 2806 
Q 1041 2509 991 1931 
L 2791 1931 
z
" id="DejaVuSerif-65" transform="scale(0.015625)"/>
      </defs>
      <use xlink:href="#DejaVuSerif-54"/>
      <use x="66.699219" xlink:href="#DejaVuSerif-69"/>
      <use x="98.681641" xlink:href="#DejaVuSerif-6d"/>
      <use x="193.505859" xlink:href="#DejaVuSerif-65"/>
     </g>
    </g>
   </g>
   <g id="matplotlib.axis_2">
    <g id="ytick_1">
     <g id="line2d_13">
      <path clip-path="url(#pee9f844949)" d="M 74.99 361.027819 
L 703.8 361.027819 
" style="fill:none;stroke:#b0b0b0;stroke-linecap:square;stroke-opacity:0.3;stroke-width:0.8;"/>
     </g>
     <g id="line2d_14">
      <defs>
       <path d="M 0 0 
L -3.5 0 
" id="m21bb2e7aeb" style="stroke:#000000;stroke-width:0.8;"/>
      </defs>
      <g>
       <use style="stroke:#000000;stroke-width:0.8;" x="74.99" xlink:href="#m21bb2e7aeb" y="361.027819"/>
      </g>
     </g>
     <g id="text_8">
      <!-- 0.00 -->
      <g transform="translate(36.818125 366.346726)scale(0.14 -0.14)">
       <defs>
        <path d="M 603 325 
Q 603 500 722 622 
Q 841 744 1019 744 
Q 1191 744 1312 622 
Q 1434 500 1434 325 
Q 1434 153 1312 31 
Q 1191 -91 1019 -91 
Q 841 -91 722 29 
Q 603 150 603 325 
z
" id="DejaVuSerif-2e" transform="scale(0.015625)"/>
       </defs>
       <use xlink:href="#DejaVuSerif-30"/>
       <use x="63.623047" xlink:href="#DejaVuSerif-2e"/>
       <use x="95.410156" xlink:href="#DejaVuSerif-30"/>
       <use x="159.033203" xlink:href="#DejaVuSerif-30"/>
      </g>
     </g>
    </g>
    <g id="ytick_2">
     <g id="line2d_15">
      <path clip-path="url(#pee9f844949)" d="M 74.99 315.226017 
L 703.8 315.226017 
" style="fill:none;stroke:#b0b0b0;stroke-linecap:square;stroke-opacity:0.3;stroke-width:0.8;"/>
     </g>
     <g id="line2d_16">
      <g>
       <use style="stroke:#000000;stroke-width:0.8;" x="74.99" xlink:href="#m21bb2e7aeb" y="315.226017"/>
      </g>
     </g>
     <g id="text_9">
      <!-- 0.25 -->
      <g transform="translate(36.818125 320.544923)scale(0.14 -0.14)">
       <defs>
        <path d="M 3219 4666 
L 3219 4153 
L 1081 4153 
L 1081 2816 
Q 1244 2928 1461 2984 
Q 1678 3041 1947 3041 
Q 2703 3041 3140 2622 
Q 3578 2203 3578 1478 
Q 3578 738 3136 323 
Q 2694 -91 1894 -91 
Q 1572 -91 1234 -12 
Q 897 66 544 225 
L 544 1131 
L 897 1131 
Q 925 688 1179 453 
Q 1434 219 1894 219 
Q 2388 219 2653 544 
Q 2919 869 2919 1478 
Q 2919 2084 2655 2407 
Q 2391 2731 1894 2731 
Q 1613 2731 1398 2631 
Q 1184 2531 1019 2322 
L 750 2322 
L 750 4666 
L 3219 4666 
z
" id="DejaVuSerif-35" transform="scale(0.015625)"/>
       </defs>
       <use xlink:href="#DejaVuSerif-30"/>
       <use x="63.623047" xlink:href="#DejaVuSerif-2e"/>
       <use x="95.410156" xlink:href="#DejaVuSerif-32"/>
       <use x="159.033203" xlink:href="#DejaVuSerif-35"/>
      </g>
     </g>
    </g>
    <g id="ytick_3">
     <g id="line2d_17">
      <path clip-path="url(#pee9f844949)" d="M 74.99 269.424214 
L 703.8 269.424214 
" style="fill:none;stroke:#b0b0b0;stroke-linecap:square;stroke-opacity:0.3;stroke-width:0.8;"/>
     </g>
     <g id="line2d_18">
      <g>
       <use style="stroke:#000000;stroke-width:0.8;" x="74.99" xlink:href="#m21bb2e7aeb" y="269.424214"/>
      </g>
     </g>
     <g id="text_10">
      <!-- 0.50 -->
      <g transform="translate(36.818125 274.74312)scale(0.14 -0.14)">
       <use xlink:href="#DejaVuSerif-30"/>
       <use x="63.623047" xlink:href="#DejaVuSerif-2e"/>
       <use x="95.410156" xlink:href="#DejaVuSerif-35"/>
       <use x="159.033203" xlink:href="#DejaVuSerif-30"/>
      </g>
     </g>
    </g>
    <g id="ytick_4">
     <g id="line2d_19">
      <path clip-path="url(#pee9f844949)" d="M 74.99 223.622411 
L 703.8 223.622411 
" style="fill:none;stroke:#b0b0b0;stroke-linecap:square;stroke-opacity:0.3;stroke-width:0.8;"/>
     </g>
     <g id="line2d_20">
      <g>
       <use style="stroke:#000000;stroke-width:0.8;" x="74.99" xlink:href="#m21bb2e7aeb" y="223.622411"/>
      </g>
     </g>
     <g id="text_11">
      <!-- 0.75 -->
      <g transform="translate(36.818125 228.941318)scale(0.14 -0.14)">
       <defs>
        <path d="M 3609 4347 
L 1784 0 
L 1319 0 
L 3059 4153 
L 903 4153 
L 903 3578 
L 538 3578 
L 538 4666 
L 3609 4666 
L 3609 4347 
z
" id="DejaVuSerif-37" transform="scale(0.015625)"/>
       </defs>
       <use xlink:href="#DejaVuSerif-30"/>
       <use x="63.623047" xlink:href="#DejaVuSerif-2e"/>
       <use x="95.410156" xlink:href="#DejaVuSerif-37"/>
       <use x="159.033203" xlink:href="#DejaVuSerif-35"/>
      </g>
     </g>
    </g>
    <g id="ytick_5">
     <g id="line2d_21">
      <path clip-path="url(#pee9f844949)" d="M 74.99 177.820609 
L 703.8 177.820609 
" style="fill:none;stroke:#b0b0b0;stroke-linecap:square;stroke-opacity:0.3;stroke-width:0.8;"/>
     </g>
     <g id="line2d_22">
      <g>
       <use style="stroke:#000000;stroke-width:0.8;" x="74.99" xlink:href="#m21bb2e7aeb" y="177.820609"/>
      </g>
     </g>
     <g id="text_12">
      <!-- 1.00 -->
      <g transform="translate(36.818125 183.139515)scale(0.14 -0.14)">
       <use xlink:href="#DejaVuSerif-31"/>
       <use x="63.623047" xlink:href="#DejaVuSerif-2e"/>
       <use x="95.410156" xlink:href="#DejaVuSerif-30"/>
       <use x="159.033203" xlink:href="#DejaVuSerif-30"/>
      </g>
     </g>
    </g>
    <g id="ytick_6">
     <g id="line2d_23">
      <path clip-path="url(#pee9f844949)" d="M 74.99 132.018806 
L 703.8 132.018806 
" style="fill:none;stroke:#b0b0b0;stroke-linecap:square;stroke-opacity:0.3;stroke-width:0.8;"/>
     </g>
     <g id="line2d_24">
      <g>
       <use style="stroke:#000000;stroke-width:0.8;" x="74.99" xlink:href="#m21bb2e7aeb" y="132.018806"/>
      </g>
     </g>
     <g id="text_13">
      <!-- 1.25 -->
      <g transform="translate(36.818125 137.337712)scale(0.14 -0.14)">
       <use xlink:href="#DejaVuSerif-31"/>
       <use x="63.623047" xlink:href="#DejaVuSerif-2e"/>
       <use x="95.410156" xlink:href="#DejaVuSerif-32"/>
       <use x="159.033203" xlink:href="#DejaVuSerif-35"/>
      </g>
     </g>
    </g>
    <g id="ytick_7">
     <g id="line2d_25">
      <path clip-path="url(#pee9f844949)" d="M 74.99 86.217003 
L 703.8 86.217003 
" style="fill:none;stroke:#b0b0b0;stroke-linecap:square;stroke-opacity:0.3;stroke-width:0.8;"/>
     </g>
     <g id="line2d_26">
      <g>
       <use style="stroke:#000000;stroke-width:0.8;" x="74.99" xlink:href="#m21bb2e7aeb" y="86.217003"/>
      </g>
     </g>
     <g id="text_14">
      <!-- 1.50 -->
      <g transform="translate(36.818125 91.53591)scale(0.14 -0.14)">
       <use xlink:href="#DejaVuSerif-31"/>
       <use x="63.623047" xlink:href="#DejaVuSerif-2e"/>
       <use x="95.410156" xlink:href="#DejaVuSerif-35"/>
       <use x="159.033203" xlink:href="#DejaVuSerif-30"/>
      </g>
     </g>
    </g>
    <g id="ytick_8">
     <g id="line2d_27">
      <path clip-path="url(#pee9f844949)" d="M 74.99 40.415201 
L 703.8 40.415201 
" style="fill:none;stroke:#b0b0b0;stroke-linecap:square;stroke-opacity:0.3;stroke-width:0.8;"/>
     </g>
     <g id="line2d_28">
      <g>
       <use style="stroke:#000000;stroke-width:0.8;" x="74.99" xlink:href="#m21bb2e7aeb" y="40.415201"/>
      </g>
     </g>
     <g id="text_15">
      <!-- 1.75 -->
      <g transform="translate(36.818125 45.734107)scale(0.14 -0.14)">
       <use xlink:href="#DejaVuSerif-31"/>
       <use x="63.623047" xlink:href="#DejaVuSerif-2e"/>
       <use x="95.410156" xlink:href="#DejaVuSerif-37"/>
       <use x="159.033203" xlink:href="#DejaVuSerif-35"/>
      </g>
     </g>
    </g>
    <g id="text_16">
     <!-- GDD Value -->
     <g transform="translate(29.074688 245.268125)rotate(-90)scale(0.18 -0.18)">
      <defs>
       <path d="M 4097 3272 
Q 3988 3856 3641 4136 
Q 3294 4416 2675 4416 
Q 1869 4416 1472 3897 
Q 1075 3378 1075 2328 
Q 1075 1300 1484 772 
Q 1894 244 2688 244 
Q 3041 244 3362 331 
Q 3684 419 3975 594 
L 3975 1797 
L 3097 1797 
L 3097 2131 
L 4609 2131 
L 4609 391 
Q 4194 150 3714 29 
Q 3234 -91 2688 -91 
Q 1631 -91 995 570 
Q 359 1231 359 2328 
Q 359 3434 996 4092 
Q 1634 4750 2713 4750 
Q 3113 4750 3539 4658 
Q 3966 4566 4447 4378 
L 4447 3272 
L 4097 3272 
z
" id="DejaVuSerif-47" transform="scale(0.015625)"/>
       <path d="M 1581 331 
L 2163 331 
Q 3072 331 3558 850 
Q 4044 1369 4044 2338 
Q 4044 3306 3559 3818 
Q 3075 4331 2163 4331 
L 1581 4331 
L 1581 331 
z
M 353 0 
L 353 331 
L 947 331 
L 947 4331 
L 353 4331 
L 353 4666 
L 2209 4666 
Q 3416 4666 4089 4050 
Q 4763 3434 4763 2338 
Q 4763 1238 4088 619 
Q 3413 0 2209 0 
L 353 0 
z
" id="DejaVuSerif-44" transform="scale(0.015625)"/>
       <path id="DejaVuSerif-20" transform="scale(0.015625)"/>
       <path d="M 1119 4331 
L 2497 750 
L 3872 4331 
L 3347 4331 
L 3347 4666 
L 4716 4666 
L 4716 4331 
L 4263 4331 
L 2597 0 
L 2059 0 
L 403 4331 
L -63 4331 
L -63 4666 
L 1638 4666 
L 1638 4331 
L 1119 4331 
z
" id="DejaVuSerif-56" transform="scale(0.015625)"/>
       <path d="M 2547 1044 
L 2547 1747 
L 1806 1747 
Q 1378 1747 1168 1562 
Q 959 1378 959 997 
Q 959 650 1171 447 
Q 1384 244 1747 244 
Q 2106 244 2326 466 
Q 2547 688 2547 1044 
z
M 3122 2075 
L 3122 331 
L 3634 331 
L 3634 0 
L 2547 0 
L 2547 359 
Q 2356 128 2106 18 
Q 1856 -91 1522 -91 
Q 969 -91 644 203 
Q 319 497 319 997 
Q 319 1513 691 1797 
Q 1063 2081 1741 2081 
L 2547 2081 
L 2547 2309 
Q 2547 2688 2317 2895 
Q 2088 3103 1672 3103 
Q 1328 3103 1125 2947 
Q 922 2791 872 2484 
L 575 2484 
L 575 3156 
Q 875 3284 1158 3348 
Q 1441 3413 1709 3413 
Q 2400 3413 2761 3070 
Q 3122 2728 3122 2075 
z
" id="DejaVuSerif-61" transform="scale(0.015625)"/>
       <path d="M 1313 331 
L 1856 331 
L 1856 0 
L 184 0 
L 184 331 
L 738 331 
L 738 4531 
L 184 4531 
L 184 4863 
L 1313 4863 
L 1313 331 
z
" id="DejaVuSerif-6c" transform="scale(0.015625)"/>
       <path d="M 2266 3322 
L 3341 3322 
L 3341 331 
L 3884 331 
L 3884 0 
L 2766 0 
L 2766 588 
Q 2606 256 2353 82 
Q 2100 -91 1766 -91 
Q 1213 -91 952 223 
Q 691 538 691 1209 
L 691 2988 
L 172 2988 
L 172 3322 
L 1269 3322 
L 1269 1388 
Q 1269 781 1417 556 
Q 1566 331 1947 331 
Q 2347 331 2556 625 
Q 2766 919 2766 1478 
L 2766 2988 
L 2266 2988 
L 2266 3322 
z
" id="DejaVuSerif-75" transform="scale(0.015625)"/>
      </defs>
      <use xlink:href="#DejaVuSerif-47"/>
      <use x="79.882812" xlink:href="#DejaVuSerif-44"/>
      <use x="160.058594" xlink:href="#DejaVuSerif-44"/>
      <use x="240.234375" xlink:href="#DejaVuSerif-20"/>
      <use x="272.021484" xlink:href="#DejaVuSerif-56"/>
      <use x="335.113281" xlink:href="#DejaVuSerif-61"/>
      <use x="394.732422" xlink:href="#DejaVuSerif-6c"/>
      <use x="426.714844" xlink:href="#DejaVuSerif-75"/>
      <use x="491.119141" xlink:href="#DejaVuSerif-65"/>
     </g>
    </g>
   </g>
   <g id="line2d_29">
    <path clip-path="url(#pee9f844949)" d="M 103.572273 301.702747 
L 105.868038 154.962406 
L 108.163802 86.022883 
L 110.459567 53.092157 
L 112.755332 38.631421 
L 115.051097 34.134093 
L 117.346862 35.113528 
L 119.642627 39.08901 
L 121.938392 44.65288 
L 126.529922 57.662854 
L 133.417216 77.538984 
L 138.008746 90.008966 
L 142.600276 101.780709 
L 147.191805 112.947188 
L 151.783335 123.608372 
L 156.374865 133.842241 
L 163.26216 148.502618 
L 170.149454 162.418657 
L 177.036749 175.634367 
L 183.924043 188.166401 
L 188.515573 196.144847 
L 193.107103 203.824343 
L 197.698633 211.207183 
L 202.290162 218.296483 
L 206.881692 225.096274 
L 211.473222 231.611501 
L 216.064752 237.847947 
L 220.656281 243.812133 
L 225.247811 249.511202 
L 229.839341 254.952795 
L 234.430871 260.14494 
L 239.022401 265.095947 
L 243.61393 269.814312 
L 248.20546 274.308633 
L 252.79699 278.587539 
L 257.38852 282.659627 
L 264.275814 288.398571 
L 271.163109 293.719471 
L 278.050403 298.649607 
L 284.937698 303.215187 
L 291.824993 307.441226 
L 298.712287 311.351473 
L 305.599582 314.968369 
L 312.486877 318.31304 
L 319.374171 321.405312 
L 326.261466 324.26374 
L 333.14876 326.905647 
L 340.036055 329.34718 
L 346.92335 331.60336 
L 356.106409 334.347248 
L 365.289469 336.816644 
L 374.472528 339.038956 
L 383.655588 341.038921 
L 392.838647 342.838841 
L 404.317472 344.837844 
L 415.796296 346.59043 
L 427.27512 348.127208 
L 441.04971 349.724022 
L 454.824299 351.088721 
L 470.894653 352.433029 
L 486.965007 353.554018 
L 505.331126 354.610696 
L 525.99301 355.5691 
L 548.950659 356.410566 
L 576.499838 357.187388 
L 608.640546 357.864415 
L 649.964314 358.494359 
L 675.217727 358.790186 
L 675.217727 358.790186 
" style="fill:none;stroke:#1f77b4;stroke-linecap:square;stroke-width:1.5;"/>
   </g>
   <g id="line2d_30">
    <path clip-path="url(#pee9f844949)" d="M 103.572273 303.281453 
L 105.868038 157.322198 
L 108.163802 87.850669 
L 110.459567 54.400507 
L 112.755332 39.184208 
L 115.051097 33.664039 
L 117.346862 33.452787 
L 119.642627 36.182052 
L 121.938392 40.530624 
L 124.234157 45.747244 
L 128.825686 57.246963 
L 138.008746 80.556193 
L 144.896041 97.189256 
L 151.783335 113.035122 
L 158.67063 128.165043 
L 165.557924 142.615702 
L 172.445219 156.39103 
L 179.332514 169.479236 
L 183.924043 177.815637 
L 188.515573 185.836693 
L 193.107103 193.540465 
L 197.698633 200.926662 
L 202.290162 207.996699 
L 206.881692 214.75363 
L 211.473222 221.202021 
L 216.064752 227.347782 
L 220.656281 233.197986 
L 225.247811 238.76068 
L 229.839341 244.044711 
L 234.430871 249.059555 
L 239.022401 253.815164 
L 243.61393 258.32183 
L 248.20546 262.590062 
L 252.79699 266.630482 
L 257.38852 270.453727 
L 261.980049 274.070375 
L 266.571579 277.490874 
L 273.458874 282.27623 
L 280.346168 286.676894 
L 287.233463 290.725016 
L 294.120758 294.451078 
L 301.008052 297.883763 
L 307.895347 301.049863 
L 314.782641 303.974251 
L 321.669936 306.679872 
L 328.557231 309.187782 
L 337.74029 312.25708 
L 346.92335 315.0496 
L 356.106409 317.600921 
L 365.289469 319.941901 
L 376.768293 322.612497 
L 388.247118 325.039505 
L 399.725942 327.258843 
L 413.500531 329.68884 
L 427.27512 331.902314 
L 443.345475 334.252936 
L 459.415829 336.390501 
L 477.781948 338.609988 
L 498.443832 340.861159 
L 519.105716 342.886106 
L 542.063364 344.903555 
L 565.021013 346.70445 
L 590.274427 348.463647 
L 617.823605 350.147971 
L 645.372784 351.616057 
L 675.217727 352.99245 
L 675.217727 352.99245 
" style="fill:none;stroke:#ff7f0e;stroke-linecap:square;stroke-width:1.5;"/>
   </g>
   <g id="line2d_31">
    <path clip-path="url(#pee9f844949)" d="M 103.572273 304.83641 
L 105.868038 162.119638 
L 108.163802 93.135305 
L 110.459567 58.822766 
L 112.755332 42.062525 
L 115.051097 34.682172 
L 117.346862 32.521818 
L 119.642627 33.360105 
L 121.938392 35.965689 
L 124.234157 39.63487 
L 126.529922 43.954953 
L 131.121451 53.653211 
L 138.008746 69.293609 
L 154.0791 106.232801 
L 160.966395 121.529695 
L 167.853689 136.300889 
L 174.740984 150.463012 
L 181.628279 163.961203 
L 188.515573 176.763523 
L 193.107103 184.904381 
L 197.698633 192.729074 
L 202.290162 200.239422 
L 206.881692 207.439123 
L 211.473222 214.333404 
L 216.064752 220.928715 
L 220.656281 227.232472 
L 225.247811 233.252837 
L 229.839341 238.99853 
L 234.430871 244.478672 
L 239.022401 249.702653 
L 243.61393 254.680021 
L 248.20546 259.420388 
L 252.79699 263.933354 
L 257.38852 268.228439 
L 261.980049 272.315036 
L 268.867344 278.074131 
L 275.754639 283.415045 
L 282.641933 288.366767 
L 289.529228 292.956925 
L 296.416522 297.21171 
L 303.303817 301.155837 
L 310.191112 304.812539 
L 317.078406 308.203579 
L 323.965701 311.349289 
L 330.852996 314.268609 
L 337.74029 316.979147 
L 344.627585 319.497238 
L 353.810644 322.58131 
L 362.993704 325.382741 
L 372.176763 327.930931 
L 381.359823 330.252234 
L 390.542882 332.370222 
L 402.021707 334.763641 
L 413.500531 336.908265 
L 424.979356 338.83537 
L 438.753945 340.89853 
L 452.528534 342.726877 
L 468.598888 344.607215 
L 484.669242 346.256594 
L 503.035361 347.904024 
L 523.697245 349.504792 
L 544.359129 350.883867 
L 567.316778 352.201383 
L 592.570192 353.435212 
L 622.415135 354.656188 
L 654.555843 355.739179 
L 675.217727 356.330803 
L 675.217727 356.330803 
" style="fill:none;stroke:#2ca02c;stroke-linecap:square;stroke-width:1.5;"/>
   </g>
   <g id="line2d_32">
    <path clip-path="url(#pee9f844949)" d="M 103.572273 301.095758 
L 105.868038 161.99722 
L 108.163802 106.560216 
L 110.459567 86.116197 
L 112.755332 81.179079 
L 115.051097 83.263095 
L 117.346862 88.470609 
L 119.642627 94.95172 
L 126.529922 115.225596 
L 131.121451 127.474535 
L 135.712981 138.534863 
L 140.304511 148.645769 
L 144.896041 158.051914 
L 149.48757 166.939937 
L 154.0791 175.435594 
L 160.966395 187.60463 
L 167.853689 199.194162 
L 174.740984 210.250857 
L 181.628279 220.781699 
L 188.515573 230.779952 
L 195.402868 240.237698 
L 202.290162 249.151214 
L 206.881692 254.792049 
L 211.473222 260.194011 
L 216.064752 265.360335 
L 220.656281 270.295219 
L 225.247811 275.00368 
L 229.839341 279.491415 
L 234.430871 283.764674 
L 239.022401 287.830128 
L 243.61393 291.694769 
L 250.501225 297.131015 
L 257.38852 302.156509 
L 264.275814 306.796231 
L 271.163109 311.074906 
L 278.050403 315.016681 
L 284.937698 318.644898 
L 291.824993 321.981926 
L 298.712287 325.049057 
L 305.599582 327.866436 
L 312.486877 330.453033 
L 319.374171 332.826638 
L 326.261466 335.003881 
L 335.444525 337.628045 
L 344.627585 339.964285 
L 353.810644 342.043107 
L 362.993704 343.892022 
L 372.176763 345.535779 
L 383.655588 347.335624 
L 395.134412 348.88795 
L 406.613237 350.226316 
L 420.387826 351.590858 
L 434.162415 352.732757 
L 450.232769 353.832497 
L 468.598888 354.842024 
L 489.260772 355.732527 
L 512.218421 356.494346 
L 539.767599 357.183939 
L 574.204073 357.817899 
L 620.11937 358.426694 
L 675.217727 358.958182 
L 675.217727 358.958182 
" style="fill:none;stroke:#d62728;stroke-linecap:square;stroke-width:1.5;"/>
   </g>
   <g id="line2d_33">
    <path clip-path="url(#pee9f844949)" d="M 103.572273 306.327987 
L 105.868038 173.735738 
L 108.163802 115.76552 
L 110.459567 90.914084 
L 112.755332 81.890955 
L 115.051097 80.806243 
L 117.346862 83.772182 
L 119.642627 88.760281 
L 121.938392 94.674134 
L 128.825686 113.240952 
L 133.417216 124.682004 
L 138.008746 135.136111 
L 142.600276 144.773107 
L 147.191805 153.795952 
L 151.783335 162.368372 
L 158.67063 174.61664 
L 165.557924 186.304115 
L 172.445219 197.50615 
L 179.332514 208.23029 
L 186.219808 218.45689 
L 193.107103 228.160886 
L 199.994398 237.322116 
L 204.585927 243.122084 
L 209.177457 248.674625 
L 213.768987 253.980562 
L 218.360517 259.042341 
L 222.952046 263.863819 
L 227.543576 268.450046 
L 232.135106 272.807057 
L 236.726636 276.941676 
L 241.318165 280.861338 
L 245.909695 284.573931 
L 250.501225 288.087664 
L 255.092755 291.410942 
L 261.980049 296.05737 
L 268.867344 300.323116 
L 275.754639 304.236455 
L 282.641933 307.824859 
L 289.529228 311.114719 
L 296.416522 314.131151 
L 303.303817 316.897867 
L 310.191112 319.437102 
L 317.078406 321.769574 
L 323.965701 323.914482 
L 333.14876 326.512982 
L 342.33182 328.847289 
L 351.51488 330.950989 
L 360.697939 332.853594 
L 372.176763 334.987984 
L 383.655588 336.891133 
L 397.430177 338.919539 
L 411.204766 340.716252 
L 427.27512 342.572031 
L 445.64124 344.434516 
L 464.007359 346.072808 
L 484.669242 347.696953 
L 507.626891 349.277287 
L 532.880305 350.78951 
L 560.429483 352.213473 
L 590.274427 353.532732 
L 622.415135 354.734717 
L 659.147373 355.876041 
L 675.217727 356.308355 
L 675.217727 356.308355 
" style="fill:none;stroke:#9467bd;stroke-linecap:square;stroke-width:1.5;"/>
   </g>
   <g id="line2d_34">
    <path clip-path="url(#pee9f844949)" d="M 103.572273 309.007517 
L 105.868038 180.344298 
L 108.163802 121.216938 
L 110.459567 93.969339 
L 112.755332 82.645405 
L 115.051097 79.735172 
L 117.346862 81.411681 
L 119.642627 85.610697 
L 121.938392 91.173537 
L 126.529922 103.995596 
L 133.417216 123.654404 
L 138.008746 135.988421 
L 142.600276 147.518302 
L 147.191805 158.268243 
L 151.783335 168.307834 
L 156.374865 177.714346 
L 160.966395 186.558699 
L 165.557924 194.901261 
L 170.149454 202.791649 
L 174.740984 210.270043 
L 179.332514 217.36891 
L 183.924043 224.11467 
L 188.515573 230.529138 
L 193.107103 236.630684 
L 197.698633 242.435148 
L 202.290162 247.956528 
L 206.881692 253.207485 
L 211.473222 258.199719 
L 216.064752 262.944224 
L 220.656281 267.451476 
L 225.247811 271.731549 
L 229.839341 275.7942 
L 234.430871 279.648915 
L 239.022401 283.304937 
L 245.909695 288.43608 
L 252.79699 293.169873 
L 259.684284 297.534636 
L 266.571579 301.557483 
L 273.458874 305.26427 
L 280.346168 308.679546 
L 287.233463 311.826523 
L 294.120758 314.727047 
L 301.008052 317.401601 
L 307.895347 319.869308 
L 314.782641 322.147955 
L 323.965701 324.920365 
L 333.14876 327.421429 
L 342.33182 329.682973 
L 351.51488 331.733291 
L 362.993704 334.036986 
L 374.472528 336.091892 
L 385.951353 337.933914 
L 399.725942 339.905591 
L 413.500531 341.657222 
L 429.570885 343.468796 
L 447.937004 345.286027 
L 466.303123 346.880877 
L 486.965007 348.456062 
L 509.922656 349.981102 
L 535.17607 351.431913 
L 562.725248 352.789612 
L 592.570192 354.039805 
L 627.006665 355.245751 
L 663.738903 356.301851 
L 675.217727 356.590165 
L 675.217727 356.590165 
" style="fill:none;stroke:#8c564b;stroke-linecap:square;stroke-width:1.5;"/>
   </g>
   <g id="patch_3">
    <path d="M 74.99 375.28 
L 74.99 16.2 
" style="fill:none;stroke:#000000;stroke-linecap:square;stroke-linejoin:miter;stroke-width:0.8;"/>
   </g>
   <g id="patch_4">
    <path d="M 703.8 375.28 
L 703.8 16.2 
" style="fill:none;stroke:#000000;stroke-linecap:square;stroke-linejoin:miter;stroke-width:0.8;"/>
   </g>
   <g id="patch_5">
    <path d="M 74.99 375.28 
L 703.8 375.28 
" style="fill:none;stroke:#000000;stroke-linecap:square;stroke-linejoin:miter;stroke-width:0.8;"/>
   </g>
   <g id="patch_6">
    <path d="M 74.99 16.2 
L 703.8 16.2 
" style="fill:none;stroke:#000000;stroke-linecap:square;stroke-linejoin:miter;stroke-width:0.8;"/>
   </g>
   <g id="legend_1">
    <g id="patch_7">
     <path d="M 389.572734 146.084766 
L 694.35 146.084766 
Q 697.05 146.084766 697.05 143.384766 
L 697.05 25.65 
Q 697.05 22.95 694.35 22.95 
L 389.572734 22.95 
Q 386.872734 22.95 386.872734 25.65 
L 386.872734 143.384766 
Q 386.872734 146.084766 389.572734 146.084766 
z
" style="fill:#ffffff;opacity:0.8;stroke:#cccccc;stroke-linejoin:miter;"/>
    </g>
    <g id="line2d_35">
     <path d="M 392.272734 33.882891 
L 419.272734 33.882891 
" style="fill:none;stroke:#1f77b4;stroke-linecap:square;stroke-width:1.5;"/>
    </g>
    <g id="line2d_36"/>
    <g id="text_17">
     <!-- Cellular response to external stimulus -->
     <g transform="translate(430.072734 38.607891)scale(0.135 -0.135)">
      <defs>
       <path d="M 4513 1234 
Q 4306 581 3820 245 
Q 3334 -91 2591 -91 
Q 2134 -91 1743 65 
Q 1353 222 1050 525 
Q 700 875 529 1320 
Q 359 1766 359 2328 
Q 359 3416 987 4083 
Q 1616 4750 2644 4750 
Q 3025 4750 3456 4650 
Q 3888 4550 4384 4347 
L 4384 3272 
L 4031 3272 
Q 3916 3859 3567 4137 
Q 3219 4416 2591 4416 
Q 1844 4416 1459 3886 
Q 1075 3356 1075 2328 
Q 1075 1303 1459 773 
Q 1844 244 2591 244 
Q 3113 244 3450 492 
Q 3788 741 3938 1234 
L 4513 1234 
z
" id="DejaVuSerif-43" transform="scale(0.015625)"/>
       <path d="M 3059 3328 
L 3059 2497 
L 2728 2497 
Q 2713 2744 2591 2866 
Q 2469 2988 2234 2988 
Q 1809 2988 1582 2694 
Q 1356 2400 1356 1850 
L 1356 331 
L 2022 331 
L 2022 0 
L 263 0 
L 263 331 
L 781 331 
L 781 2994 
L 231 2994 
L 231 3322 
L 1356 3322 
L 1356 2731 
Q 1525 3078 1790 3245 
Q 2056 3413 2438 3413 
Q 2578 3413 2733 3391 
Q 2888 3369 3059 3328 
z
" id="DejaVuSerif-72" transform="scale(0.015625)"/>
       <path d="M 359 184 
L 359 959 
L 691 959 
Q 703 588 923 403 
Q 1144 219 1575 219 
Q 1963 219 2166 364 
Q 2369 509 2369 788 
Q 2369 1006 2220 1140 
Q 2072 1275 1594 1428 
L 1178 1569 
Q 750 1706 558 1912 
Q 366 2119 366 2438 
Q 366 2894 700 3153 
Q 1034 3413 1625 3413 
Q 1888 3413 2178 3344 
Q 2469 3275 2778 3144 
L 2778 2419 
L 2447 2419 
Q 2434 2741 2221 2922 
Q 2009 3103 1644 3103 
Q 1281 3103 1095 2975 
Q 909 2847 909 2591 
Q 909 2381 1050 2254 
Q 1191 2128 1613 1997 
L 2069 1856 
Q 2541 1709 2748 1489 
Q 2956 1269 2956 922 
Q 2956 450 2595 179 
Q 2234 -91 1600 -91 
Q 1278 -91 972 -22 
Q 666 47 359 184 
z
" id="DejaVuSerif-73" transform="scale(0.015625)"/>
       <path d="M 1313 1825 
L 1313 1497 
Q 1313 897 1542 583 
Q 1772 269 2209 269 
Q 2650 269 2876 622 
Q 3103 975 3103 1663 
Q 3103 2353 2876 2703 
Q 2650 3053 2209 3053 
Q 1772 3053 1542 2737 
Q 1313 2422 1313 1825 
z
M 738 2988 
L 184 2988 
L 184 3322 
L 1313 3322 
L 1313 2803 
Q 1481 3116 1742 3264 
Q 2003 3413 2388 3413 
Q 3000 3413 3387 2928 
Q 3775 2444 3775 1663 
Q 3775 881 3387 395 
Q 3000 -91 2388 -91 
Q 2003 -91 1742 57 
Q 1481 206 1313 519 
L 1313 -997 
L 1856 -997 
L 1856 -1331 
L 184 -1331 
L 184 -997 
L 738 -997 
L 738 2988 
z
" id="DejaVuSerif-70" transform="scale(0.015625)"/>
       <path d="M 1925 219 
Q 2388 219 2623 584 
Q 2859 950 2859 1663 
Q 2859 2375 2623 2739 
Q 2388 3103 1925 3103 
Q 1463 3103 1227 2739 
Q 991 2375 991 1663 
Q 991 950 1228 584 
Q 1466 219 1925 219 
z
M 1925 -91 
Q 1200 -91 759 389 
Q 319 869 319 1663 
Q 319 2456 758 2934 
Q 1197 3413 1925 3413 
Q 2653 3413 3092 2934 
Q 3531 2456 3531 1663 
Q 3531 869 3092 389 
Q 2653 -91 1925 -91 
z
" id="DejaVuSerif-6f" transform="scale(0.015625)"/>
       <path d="M 263 0 
L 263 331 
L 781 331 
L 781 2988 
L 231 2988 
L 231 3322 
L 1356 3322 
L 1356 2731 
Q 1516 3069 1770 3241 
Q 2025 3413 2363 3413 
Q 2913 3413 3172 3097 
Q 3431 2781 3431 2113 
L 3431 331 
L 3944 331 
L 3944 0 
L 2356 0 
L 2356 331 
L 2853 331 
L 2853 1931 
Q 2853 2541 2703 2767 
Q 2553 2994 2175 2994 
Q 1775 2994 1565 2701 
Q 1356 2409 1356 1850 
L 1356 331 
L 1856 331 
L 1856 0 
L 263 0 
z
" id="DejaVuSerif-6e" transform="scale(0.015625)"/>
       <path d="M 691 2988 
L 184 2988 
L 184 3322 
L 691 3322 
L 691 4353 
L 1269 4353 
L 1269 3322 
L 2350 3322 
L 2350 2988 
L 1269 2988 
L 1269 878 
Q 1269 456 1350 337 
Q 1431 219 1650 219 
Q 1875 219 1978 351 
Q 2081 484 2088 781 
L 2522 781 
Q 2497 328 2275 118 
Q 2053 -91 1600 -91 
Q 1103 -91 897 129 
Q 691 350 691 878 
L 691 2988 
z
" id="DejaVuSerif-74" transform="scale(0.015625)"/>
       <path d="M 1863 2028 
L 2559 2988 
L 2113 2988 
L 2113 3322 
L 3391 3322 
L 3391 2988 
L 2950 2988 
L 2059 1759 
L 3097 331 
L 3531 331 
L 3531 0 
L 1997 0 
L 1997 331 
L 2419 331 
L 1697 1325 
L 972 331 
L 1403 331 
L 1403 0 
L 141 0 
L 141 331 
L 581 331 
L 1497 1594 
L 488 2988 
L 78 2988 
L 78 3322 
L 1563 3322 
L 1563 2988 
L 1166 2988 
L 1863 2028 
z
" id="DejaVuSerif-78" transform="scale(0.015625)"/>
      </defs>
      <use xlink:href="#DejaVuSerif-43"/>
      <use x="76.513672" xlink:href="#DejaVuSerif-65"/>
      <use x="135.693359" xlink:href="#DejaVuSerif-6c"/>
      <use x="167.675781" xlink:href="#DejaVuSerif-6c"/>
      <use x="199.658203" xlink:href="#DejaVuSerif-75"/>
      <use x="264.0625" xlink:href="#DejaVuSerif-6c"/>
      <use x="296.044922" xlink:href="#DejaVuSerif-61"/>
      <use x="355.664062" xlink:href="#DejaVuSerif-72"/>
      <use x="403.466797" xlink:href="#DejaVuSerif-20"/>
      <use x="435.253906" xlink:href="#DejaVuSerif-72"/>
      <use x="483.056641" xlink:href="#DejaVuSerif-65"/>
      <use x="542.236328" xlink:href="#DejaVuSerif-73"/>
      <use x="593.554688" xlink:href="#DejaVuSerif-70"/>
      <use x="657.568359" xlink:href="#DejaVuSerif-6f"/>
      <use x="717.773438" xlink:href="#DejaVuSerif-6e"/>
      <use x="782.177734" xlink:href="#DejaVuSerif-73"/>
      <use x="833.496094" xlink:href="#DejaVuSerif-65"/>
      <use x="892.675781" xlink:href="#DejaVuSerif-20"/>
      <use x="924.462891" xlink:href="#DejaVuSerif-74"/>
      <use x="964.648438" xlink:href="#DejaVuSerif-6f"/>
      <use x="1024.853516" xlink:href="#DejaVuSerif-20"/>
      <use x="1056.640625" xlink:href="#DejaVuSerif-65"/>
      <use x="1115.820312" xlink:href="#DejaVuSerif-78"/>
      <use x="1172.216797" xlink:href="#DejaVuSerif-74"/>
      <use x="1212.402344" xlink:href="#DejaVuSerif-65"/>
      <use x="1271.582031" xlink:href="#DejaVuSerif-72"/>
      <use x="1319.384766" xlink:href="#DejaVuSerif-6e"/>
      <use x="1383.789062" xlink:href="#DejaVuSerif-61"/>
      <use x="1443.408203" xlink:href="#DejaVuSerif-6c"/>
      <use x="1475.390625" xlink:href="#DejaVuSerif-20"/>
      <use x="1507.177734" xlink:href="#DejaVuSerif-73"/>
      <use x="1558.496094" xlink:href="#DejaVuSerif-74"/>
      <use x="1598.681641" xlink:href="#DejaVuSerif-69"/>
      <use x="1630.664062" xlink:href="#DejaVuSerif-6d"/>
      <use x="1725.488281" xlink:href="#DejaVuSerif-75"/>
      <use x="1789.892578" xlink:href="#DejaVuSerif-6c"/>
      <use x="1821.875" xlink:href="#DejaVuSerif-75"/>
      <use x="1886.279297" xlink:href="#DejaVuSerif-73"/>
     </g>
    </g>
    <g id="line2d_37">
     <path d="M 392.272734 53.698359 
L 419.272734 53.698359 
" style="fill:none;stroke:#ff7f0e;stroke-linecap:square;stroke-width:1.5;"/>
    </g>
    <g id="line2d_38"/>
    <g id="text_18">
     <!-- Peptidyl-serine modification -->
     <g transform="translate(430.072734 58.423359)scale(0.135 -0.135)">
      <defs>
       <path d="M 1581 2375 
L 2406 2375 
Q 2872 2375 3115 2626 
Q 3359 2878 3359 3353 
Q 3359 3831 3115 4081 
Q 2872 4331 2406 4331 
L 1581 4331 
L 1581 2375 
z
M 353 0 
L 353 331 
L 947 331 
L 947 4331 
L 353 4331 
L 353 4666 
L 2559 4666 
Q 3259 4666 3668 4311 
Q 4078 3956 4078 3353 
Q 4078 2753 3668 2397 
Q 3259 2041 2559 2041 
L 1581 2041 
L 1581 331 
L 2303 331 
L 2303 0 
L 353 0 
z
" id="DejaVuSerif-50" transform="scale(0.015625)"/>
       <path d="M 3359 331 
L 3909 331 
L 3909 0 
L 2784 0 
L 2784 519 
Q 2616 206 2355 57 
Q 2094 -91 1709 -91 
Q 1097 -91 708 395 
Q 319 881 319 1663 
Q 319 2444 706 2928 
Q 1094 3413 1709 3413 
Q 2094 3413 2355 3264 
Q 2616 3116 2784 2803 
L 2784 4531 
L 2241 4531 
L 2241 4863 
L 3359 4863 
L 3359 331 
z
M 2784 1497 
L 2784 1825 
Q 2784 2422 2554 2737 
Q 2325 3053 1888 3053 
Q 1444 3053 1217 2703 
Q 991 2353 991 1663 
Q 991 975 1217 622 
Q 1444 269 1888 269 
Q 2325 269 2554 583 
Q 2784 897 2784 1497 
z
" id="DejaVuSerif-64" transform="scale(0.015625)"/>
       <path d="M 1381 -609 
L 1600 -56 
L 359 2988 
L -19 2988 
L -19 3322 
L 1509 3322 
L 1509 2988 
L 978 2988 
L 1913 703 
L 2847 2988 
L 2350 2988 
L 2350 3322 
L 3597 3322 
L 3597 2988 
L 3225 2988 
L 1703 -750 
Q 1547 -1138 1356 -1280 
Q 1166 -1422 819 -1422 
Q 672 -1422 517 -1397 
Q 363 -1372 206 -1325 
L 206 -691 
L 500 -691 
Q 519 -903 608 -995 
Q 697 -1088 884 -1088 
Q 1056 -1088 1161 -992 
Q 1266 -897 1381 -609 
z
" id="DejaVuSerif-79" transform="scale(0.015625)"/>
       <path d="M 281 1959 
L 1881 1959 
L 1881 1472 
L 281 1472 
L 281 1959 
z
" id="DejaVuSerif-2d" transform="scale(0.015625)"/>
       <path d="M 2753 4078 
L 2450 4078 
Q 2447 4313 2317 4434 
Q 2188 4556 1941 4556 
Q 1619 4556 1487 4379 
Q 1356 4203 1356 3750 
L 1356 3322 
L 2284 3322 
L 2284 2988 
L 1356 2988 
L 1356 331 
L 2094 331 
L 2094 0 
L 231 0 
L 231 331 
L 781 331 
L 781 2988 
L 231 2988 
L 231 3322 
L 781 3322 
L 781 3738 
Q 781 4294 1070 4578 
Q 1359 4863 1919 4863 
Q 2128 4863 2337 4825 
Q 2547 4788 2753 4709 
L 2753 4078 
z
" id="DejaVuSerif-66" transform="scale(0.015625)"/>
       <path d="M 3291 997 
Q 3169 466 2822 187 
Q 2475 -91 1925 -91 
Q 1200 -91 759 389 
Q 319 869 319 1663 
Q 319 2459 759 2936 
Q 1200 3413 1925 3413 
Q 2241 3413 2553 3339 
Q 2866 3266 3181 3116 
L 3181 2266 
L 2847 2266 
Q 2781 2703 2561 2903 
Q 2341 3103 1931 3103 
Q 1466 3103 1228 2742 
Q 991 2381 991 1663 
Q 991 944 1227 581 
Q 1463 219 1931 219 
Q 2303 219 2525 412 
Q 2747 606 2828 997 
L 3291 997 
z
" id="DejaVuSerif-63" transform="scale(0.015625)"/>
      </defs>
      <use xlink:href="#DejaVuSerif-50"/>
      <use x="62.785156" xlink:href="#DejaVuSerif-65"/>
      <use x="121.964844" xlink:href="#DejaVuSerif-70"/>
      <use x="185.978516" xlink:href="#DejaVuSerif-74"/>
      <use x="226.164062" xlink:href="#DejaVuSerif-69"/>
      <use x="258.146484" xlink:href="#DejaVuSerif-64"/>
      <use x="322.160156" xlink:href="#DejaVuSerif-79"/>
      <use x="378.654297" xlink:href="#DejaVuSerif-6c"/>
      <use x="410.636719" xlink:href="#DejaVuSerif-2d"/>
      <use x="444.425781" xlink:href="#DejaVuSerif-73"/>
      <use x="495.744141" xlink:href="#DejaVuSerif-65"/>
      <use x="554.923828" xlink:href="#DejaVuSerif-72"/>
      <use x="602.726562" xlink:href="#DejaVuSerif-69"/>
      <use x="634.708984" xlink:href="#DejaVuSerif-6e"/>
      <use x="699.113281" xlink:href="#DejaVuSerif-65"/>
      <use x="758.292969" xlink:href="#DejaVuSerif-20"/>
      <use x="790.080078" xlink:href="#DejaVuSerif-6d"/>
      <use x="884.904297" xlink:href="#DejaVuSerif-6f"/>
      <use x="945.109375" xlink:href="#DejaVuSerif-64"/>
      <use x="1009.123047" xlink:href="#DejaVuSerif-69"/>
      <use x="1041.105469" xlink:href="#DejaVuSerif-66"/>
      <use x="1078.117188" xlink:href="#DejaVuSerif-69"/>
      <use x="1110.099609" xlink:href="#DejaVuSerif-63"/>
      <use x="1166.105469" xlink:href="#DejaVuSerif-61"/>
      <use x="1225.724609" xlink:href="#DejaVuSerif-74"/>
      <use x="1265.910156" xlink:href="#DejaVuSerif-69"/>
      <use x="1297.892578" xlink:href="#DejaVuSerif-6f"/>
      <use x="1358.097656" xlink:href="#DejaVuSerif-6e"/>
     </g>
    </g>
    <g id="line2d_39">
     <path d="M 392.272734 73.705781 
L 419.272734 73.705781 
" style="fill:none;stroke:#2ca02c;stroke-linecap:square;stroke-width:1.5;"/>
    </g>
    <g id="line2d_40"/>
    <g id="text_19">
     <!-- Response to steroid hormone -->
     <g transform="translate(430.072734 78.430781)scale(0.135 -0.135)">
      <defs>
       <path d="M 3066 2316 
Q 3284 2256 3442 2114 
Q 3600 1972 3725 1716 
L 4403 331 
L 4972 331 
L 4972 0 
L 3872 0 
L 3144 1484 
Q 2934 1916 2759 2042 
Q 2584 2169 2278 2169 
L 1581 2169 
L 1581 331 
L 2241 331 
L 2241 0 
L 353 0 
L 353 331 
L 947 331 
L 947 4331 
L 353 4331 
L 353 4666 
L 2719 4666 
Q 3400 4666 3770 4341 
Q 4141 4016 4141 3419 
Q 4141 2938 3870 2661 
Q 3600 2384 3066 2316 
z
M 1581 2503 
L 2503 2503 
Q 2975 2503 3200 2726 
Q 3425 2950 3425 3419 
Q 3425 3888 3200 4109 
Q 2975 4331 2503 4331 
L 1581 4331 
L 1581 2503 
z
" id="DejaVuSerif-52" transform="scale(0.015625)"/>
       <path d="M 263 0 
L 263 331 
L 781 331 
L 781 4531 
L 231 4531 
L 231 4863 
L 1356 4863 
L 1356 2731 
Q 1516 3069 1770 3241 
Q 2025 3413 2363 3413 
Q 2913 3413 3172 3097 
Q 3431 2781 3431 2113 
L 3431 331 
L 3944 331 
L 3944 0 
L 2356 0 
L 2356 331 
L 2853 331 
L 2853 1931 
Q 2853 2541 2704 2764 
Q 2556 2988 2175 2988 
Q 1775 2988 1565 2697 
Q 1356 2406 1356 1850 
L 1356 331 
L 1856 331 
L 1856 0 
L 263 0 
z
" id="DejaVuSerif-68" transform="scale(0.015625)"/>
      </defs>
      <use xlink:href="#DejaVuSerif-52"/>
      <use x="75.292969" xlink:href="#DejaVuSerif-65"/>
      <use x="134.472656" xlink:href="#DejaVuSerif-73"/>
      <use x="185.791016" xlink:href="#DejaVuSerif-70"/>
      <use x="249.804688" xlink:href="#DejaVuSerif-6f"/>
      <use x="310.009766" xlink:href="#DejaVuSerif-6e"/>
      <use x="374.414062" xlink:href="#DejaVuSerif-73"/>
      <use x="425.732422" xlink:href="#DejaVuSerif-65"/>
      <use x="484.912109" xlink:href="#DejaVuSerif-20"/>
      <use x="516.699219" xlink:href="#DejaVuSerif-74"/>
      <use x="556.884766" xlink:href="#DejaVuSerif-6f"/>
      <use x="617.089844" xlink:href="#DejaVuSerif-20"/>
      <use x="648.876953" xlink:href="#DejaVuSerif-73"/>
      <use x="700.195312" xlink:href="#DejaVuSerif-74"/>
      <use x="740.380859" xlink:href="#DejaVuSerif-65"/>
      <use x="799.560547" xlink:href="#DejaVuSerif-72"/>
      <use x="847.363281" xlink:href="#DejaVuSerif-6f"/>
      <use x="907.568359" xlink:href="#DejaVuSerif-69"/>
      <use x="939.550781" xlink:href="#DejaVuSerif-64"/>
      <use x="1003.564453" xlink:href="#DejaVuSerif-20"/>
      <use x="1035.351562" xlink:href="#DejaVuSerif-68"/>
      <use x="1099.755859" xlink:href="#DejaVuSerif-6f"/>
      <use x="1159.960938" xlink:href="#DejaVuSerif-72"/>
      <use x="1207.763672" xlink:href="#DejaVuSerif-6d"/>
      <use x="1302.587891" xlink:href="#DejaVuSerif-6f"/>
      <use x="1362.792969" xlink:href="#DejaVuSerif-6e"/>
      <use x="1427.197266" xlink:href="#DejaVuSerif-65"/>
     </g>
    </g>
    <g id="line2d_41">
     <path d="M 392.272734 93.52125 
L 419.272734 93.52125 
" style="fill:none;stroke:#d62728;stroke-linecap:square;stroke-width:1.5;"/>
    </g>
    <g id="line2d_42"/>
    <g id="text_20">
     <!-- Deubiquitination -->
     <g transform="translate(430.072734 98.24625)scale(0.135 -0.135)">
      <defs>
       <path d="M 738 331 
L 738 4531 
L 184 4531 
L 184 4863 
L 1313 4863 
L 1313 2803 
Q 1481 3116 1742 3264 
Q 2003 3413 2388 3413 
Q 3000 3413 3387 2928 
Q 3775 2444 3775 1663 
Q 3775 881 3387 395 
Q 3000 -91 2388 -91 
Q 2003 -91 1742 57 
Q 1481 206 1313 519 
L 1313 0 
L 184 0 
L 184 331 
L 738 331 
z
M 1313 1497 
Q 1313 897 1542 583 
Q 1772 269 2209 269 
Q 2650 269 2876 622 
Q 3103 975 3103 1663 
Q 3103 2353 2876 2703 
Q 2650 3053 2209 3053 
Q 1772 3053 1542 2737 
Q 1313 2422 1313 1825 
L 1313 1497 
z
" id="DejaVuSerif-62" transform="scale(0.015625)"/>
       <path d="M 3359 2988 
L 3359 -997 
L 3909 -997 
L 3909 -1331 
L 2241 -1331 
L 2241 -997 
L 2784 -997 
L 2784 519 
Q 2616 206 2355 57 
Q 2094 -91 1709 -91 
Q 1097 -91 708 395 
Q 319 881 319 1663 
Q 319 2444 706 2928 
Q 1094 3413 1709 3413 
Q 2094 3413 2355 3264 
Q 2616 3116 2784 2803 
L 2784 3322 
L 3909 3322 
L 3909 2988 
L 3359 2988 
z
M 2784 1825 
Q 2784 2422 2554 2737 
Q 2325 3053 1888 3053 
Q 1444 3053 1217 2703 
Q 991 2353 991 1663 
Q 991 975 1217 622 
Q 1444 269 1888 269 
Q 2325 269 2554 583 
Q 2784 897 2784 1497 
L 2784 1825 
z
" id="DejaVuSerif-71" transform="scale(0.015625)"/>
      </defs>
      <use xlink:href="#DejaVuSerif-44"/>
      <use x="80.175781" xlink:href="#DejaVuSerif-65"/>
      <use x="139.355469" xlink:href="#DejaVuSerif-75"/>
      <use x="203.759766" xlink:href="#DejaVuSerif-62"/>
      <use x="267.773438" xlink:href="#DejaVuSerif-69"/>
      <use x="299.755859" xlink:href="#DejaVuSerif-71"/>
      <use x="363.769531" xlink:href="#DejaVuSerif-75"/>
      <use x="428.173828" xlink:href="#DejaVuSerif-69"/>
      <use x="460.15625" xlink:href="#DejaVuSerif-74"/>
      <use x="500.341797" xlink:href="#DejaVuSerif-69"/>
      <use x="532.324219" xlink:href="#DejaVuSerif-6e"/>
      <use x="596.728516" xlink:href="#DejaVuSerif-61"/>
      <use x="656.347656" xlink:href="#DejaVuSerif-74"/>
      <use x="696.533203" xlink:href="#DejaVuSerif-69"/>
      <use x="728.515625" xlink:href="#DejaVuSerif-6f"/>
      <use x="788.720703" xlink:href="#DejaVuSerif-6e"/>
     </g>
    </g>
    <g id="line2d_43">
     <path d="M 392.272734 113.336719 
L 419.272734 113.336719 
" style="fill:none;stroke:#9467bd;stroke-linecap:square;stroke-width:1.5;"/>
    </g>
    <g id="line2d_44"/>
    <g id="text_21">
     <!-- Cellular homeostasis -->
     <g transform="translate(430.072734 118.061719)scale(0.135 -0.135)">
      <use xlink:href="#DejaVuSerif-43"/>
      <use x="76.513672" xlink:href="#DejaVuSerif-65"/>
      <use x="135.693359" xlink:href="#DejaVuSerif-6c"/>
      <use x="167.675781" xlink:href="#DejaVuSerif-6c"/>
      <use x="199.658203" xlink:href="#DejaVuSerif-75"/>
      <use x="264.0625" xlink:href="#DejaVuSerif-6c"/>
      <use x="296.044922" xlink:href="#DejaVuSerif-61"/>
      <use x="355.664062" xlink:href="#DejaVuSerif-72"/>
      <use x="403.466797" xlink:href="#DejaVuSerif-20"/>
      <use x="435.253906" xlink:href="#DejaVuSerif-68"/>
      <use x="499.658203" xlink:href="#DejaVuSerif-6f"/>
      <use x="559.863281" xlink:href="#DejaVuSerif-6d"/>
      <use x="654.6875" xlink:href="#DejaVuSerif-65"/>
      <use x="713.867188" xlink:href="#DejaVuSerif-6f"/>
      <use x="774.072266" xlink:href="#DejaVuSerif-73"/>
      <use x="825.390625" xlink:href="#DejaVuSerif-74"/>
      <use x="865.576172" xlink:href="#DejaVuSerif-61"/>
      <use x="925.195312" xlink:href="#DejaVuSerif-73"/>
      <use x="976.513672" xlink:href="#DejaVuSerif-69"/>
      <use x="1008.496094" xlink:href="#DejaVuSerif-73"/>
     </g>
    </g>
    <g id="line2d_45">
     <path d="M 392.272734 133.152187 
L 419.272734 133.152187 
" style="fill:none;stroke:#8c564b;stroke-linecap:square;stroke-width:1.5;"/>
    </g>
    <g id="line2d_46"/>
    <g id="text_22">
     <!-- Mononuclear cell differentiation -->
     <g transform="translate(430.072734 137.877187)scale(0.135 -0.135)">
      <defs>
       <path d="M 353 0 
L 353 331 
L 947 331 
L 947 4331 
L 319 4331 
L 319 4666 
L 1678 4666 
L 3316 1344 
L 4953 4666 
L 6228 4666 
L 6228 4331 
L 5606 4331 
L 5606 331 
L 6203 331 
L 6203 0 
L 4378 0 
L 4378 331 
L 4972 331 
L 4972 3938 
L 3372 684 
L 2931 684 
L 1331 3938 
L 1331 331 
L 1925 331 
L 1925 0 
L 353 0 
z
" id="DejaVuSerif-4d" transform="scale(0.015625)"/>
      </defs>
      <use xlink:href="#DejaVuSerif-4d"/>
      <use x="102.392578" xlink:href="#DejaVuSerif-6f"/>
      <use x="162.597656" xlink:href="#DejaVuSerif-6e"/>
      <use x="227.001953" xlink:href="#DejaVuSerif-6f"/>
      <use x="287.207031" xlink:href="#DejaVuSerif-6e"/>
      <use x="351.611328" xlink:href="#DejaVuSerif-75"/>
      <use x="416.015625" xlink:href="#DejaVuSerif-63"/>
      <use x="472.021484" xlink:href="#DejaVuSerif-6c"/>
      <use x="504.003906" xlink:href="#DejaVuSerif-65"/>
      <use x="563.183594" xlink:href="#DejaVuSerif-61"/>
      <use x="622.802734" xlink:href="#DejaVuSerif-72"/>
      <use x="670.605469" xlink:href="#DejaVuSerif-20"/>
      <use x="702.392578" xlink:href="#DejaVuSerif-63"/>
      <use x="758.398438" xlink:href="#DejaVuSerif-65"/>
      <use x="817.578125" xlink:href="#DejaVuSerif-6c"/>
      <use x="849.560547" xlink:href="#DejaVuSerif-6c"/>
      <use x="881.542969" xlink:href="#DejaVuSerif-20"/>
      <use x="913.330078" xlink:href="#DejaVuSerif-64"/>
      <use x="977.34375" xlink:href="#DejaVuSerif-69"/>
      <use x="1009.326172" xlink:href="#DejaVuSerif-66"/>
      <use x="1046.337891" xlink:href="#DejaVuSerif-66"/>
      <use x="1083.349609" xlink:href="#DejaVuSerif-65"/>
      <use x="1142.529297" xlink:href="#DejaVuSerif-72"/>
      <use x="1190.332031" xlink:href="#DejaVuSerif-65"/>
      <use x="1249.511719" xlink:href="#DejaVuSerif-6e"/>
      <use x="1313.916016" xlink:href="#DejaVuSerif-74"/>
      <use x="1354.101562" xlink:href="#DejaVuSerif-69"/>
      <use x="1386.083984" xlink:href="#DejaVuSerif-61"/>
      <use x="1445.703125" xlink:href="#DejaVuSerif-74"/>
      <use x="1485.888672" xlink:href="#DejaVuSerif-69"/>
      <use x="1517.871094" xlink:href="#DejaVuSerif-6f"/>
      <use x="1578.076172" xlink:href="#DejaVuSerif-6e"/>
     </g>
    </g>
   </g>
  </g>
 </g>
 <defs>
  <clipPath id="pee9f844949">
   <rect height="359.08" width="628.81" x="74.99" y="16.2"/>
  </clipPath>
 </defs>
</svg>
